<svg width="399" height="312" viewBox="0 0 399 312" fill="none" xmlns="http://www.w3.org/2000/svg">
<path d="M227.541 0.837174C251.292 5.73656 266.489 36.1847 285.22 69.2679C303.911 102.16 343.005 164.624 337.5 196.5C331.995 228.376 274.754 225.475 240.331 230.229C205.908 234.983 177.433 220.456 140.123 215.66C102.772 210.672 63.5208 219.646 37.4114 206.678C11.099 193.753 -2.07124 158.885 0.998021 126.532C4.0266 93.9887 23.254 63.7698 49.0251 49.2991C74.5932 34.8718 106.705 36.1928 138.974 26.3162C171.283 16.6304 203.79 -4.06222 227.541 0.837174Z" fill="#3F37C9"/>
<path d="M53.52 205V203.95H57.72C58.63 203.95 59.505 203.845 60.345 203.635C61.185 203.355 61.885 202.795 62.445 201.955C63.005 201.045 63.285 199.715 63.285 197.965V137.17C63.285 135.35 62.97 134.02 62.34 133.18C61.78 132.34 61.08 131.78 60.24 131.5C59.4 131.22 58.56 131.08 57.72 131.08H53.52V130.03H89.64C96.92 130.03 102.765 130.835 107.175 132.445C111.655 133.985 114.875 136.225 116.835 139.165C118.865 142.105 119.88 145.605 119.88 149.665C119.88 153.585 119.18 156.84 117.78 159.43C116.38 161.95 114.525 164.015 112.215 165.625C109.975 167.165 107.49 168.355 104.76 169.195L117.675 192.295C119.215 194.955 120.475 197.09 121.455 198.7C122.505 200.24 123.38 201.395 124.08 202.165C124.85 202.865 125.515 203.355 126.075 203.635C126.635 203.845 127.23 203.95 127.86 203.95H128.07V205H123.24C120.16 205 117.36 204.895 114.84 204.685C112.32 204.405 110.08 203.95 108.12 203.32C106.16 202.62 104.41 201.605 102.87 200.275C101.4 198.945 100.14 197.23 99.09 195.13L86.7 169.93H82.29V197.965C82.29 199.715 82.5 201.045 82.92 201.955C83.41 202.795 84.04 203.355 84.81 203.635C85.65 203.845 86.56 203.95 87.54 203.95H90.9V205H53.52ZM87.435 168.88C90.445 168.88 92.825 168.25 94.575 166.99C96.395 165.73 97.69 163.77 98.46 161.11C99.3 158.38 99.72 154.88 99.72 150.61C99.72 145.92 99.3 142.14 98.46 139.27C97.62 136.4 96.29 134.335 94.47 133.075C92.65 131.745 90.27 131.08 87.33 131.08H82.29V168.88H87.435Z" fill="white"/>
<path d="M155.099 206.05C149.219 206.05 144.809 204.475 141.869 201.325C138.929 198.105 137.459 192.96 137.459 185.89V157.12C137.459 154.95 137.214 153.375 136.724 152.395C136.304 151.345 135.639 150.645 134.729 150.295C133.819 149.945 132.594 149.77 131.054 149.77H130.739V148.72H155.939V188.515C155.939 191.525 156.114 194.01 156.464 195.97C156.884 197.93 157.584 199.4 158.564 200.38C159.544 201.36 160.874 201.85 162.554 201.85C164.654 201.85 166.299 201.01 167.489 199.33C168.679 197.65 169.484 195.445 169.904 192.715C170.394 189.915 170.639 186.87 170.639 183.58V156.49C170.639 154.6 170.324 153.165 169.694 152.185C169.134 151.205 168.294 150.575 167.174 150.295C166.124 149.945 164.969 149.77 163.709 149.77H163.289V148.72H189.119V197.44C189.119 199.26 189.434 200.66 190.064 201.64C190.694 202.55 191.534 203.18 192.584 203.53C193.704 203.81 194.894 203.95 196.154 203.95H196.574V205H170.744V194.71H170.534C170.044 196.81 169.309 198.595 168.329 200.065C167.419 201.535 166.299 202.725 164.969 203.635C163.709 204.475 162.239 205.07 160.559 205.42C158.879 205.84 157.059 206.05 155.099 206.05Z" fill="white"/>
<path d="M221.112 206.05C217.612 206.05 214.567 205.42 211.977 204.16C209.387 202.9 207.357 201.08 205.887 198.7C204.487 196.25 203.787 193.345 203.787 189.985C203.787 184.665 205.712 180.745 209.562 178.225C213.482 175.705 219.327 174.305 227.097 174.025L235.707 173.71V159.85C235.707 156.91 235.497 154.6 235.077 152.92C234.727 151.24 234.132 150.05 233.292 149.35C232.452 148.65 231.332 148.3 229.932 148.3C228.252 148.3 226.957 148.825 226.047 149.875C225.137 150.855 224.472 152.605 224.052 155.125C223.702 157.645 223.527 161.075 223.527 165.415C218.417 165.415 214.567 164.855 211.977 163.735C209.457 162.615 208.197 160.76 208.197 158.17C208.197 155.51 209.212 153.375 211.242 151.765C213.342 150.155 216.107 149 219.537 148.3C222.967 147.6 226.747 147.25 230.877 147.25C238.647 147.25 244.457 148.58 248.307 151.24C252.157 153.83 254.082 158.38 254.082 164.89V196.495C254.082 198.455 254.257 199.995 254.607 201.115C255.027 202.165 255.692 202.9 256.602 203.32C257.582 203.74 258.842 203.95 260.382 203.95H260.802V205H235.812V195.655H235.602C234.762 198.385 233.607 200.52 232.137 202.06C230.667 203.53 228.987 204.545 227.097 205.105C225.207 205.735 223.212 206.05 221.112 206.05ZM227.727 202.375C229.337 202.375 230.737 201.71 231.927 200.38C233.117 198.98 234.027 197.16 234.657 194.92C235.357 192.68 235.707 190.23 235.707 187.57V174.76L231.717 174.97C229.407 175.11 227.552 175.67 226.152 176.65C224.822 177.63 223.877 179.135 223.317 181.165C222.757 183.195 222.477 185.855 222.477 189.145C222.477 192.295 222.652 194.85 223.002 196.81C223.422 198.7 224.017 200.1 224.787 201.01C225.557 201.92 226.537 202.375 227.727 202.375Z" fill="white"/>
<path d="M265.344 205V203.95H266.184C267.514 203.95 268.739 203.81 269.859 203.53C270.979 203.18 271.854 202.515 272.484 201.535C273.184 200.485 273.534 198.98 273.534 197.02V156.28C273.534 154.39 273.184 152.99 272.484 152.08C271.854 151.17 271.014 150.575 269.964 150.295C268.914 149.945 267.759 149.77 266.499 149.77H265.659V148.72H291.804V158.59H292.014C292.784 155.79 293.869 153.55 295.269 151.87C296.669 150.19 298.419 149 300.519 148.3C302.619 147.6 304.964 147.25 307.554 147.25C313.434 147.25 317.844 148.86 320.784 152.08C323.724 155.23 325.194 160.34 325.194 167.41V196.6C325.194 198.7 325.404 200.275 325.824 201.325C326.314 202.375 327.014 203.075 327.924 203.425C328.904 203.775 330.164 203.95 331.704 203.95H332.124V205H306.819V164.785C306.819 160.305 306.329 156.98 305.349 154.81C304.369 152.57 302.619 151.45 300.099 151.45C298.069 151.45 296.424 152.29 295.164 153.97C293.974 155.65 293.134 157.89 292.644 160.69C292.154 163.42 291.909 166.43 291.909 169.72V197.23C291.909 199.12 292.224 200.555 292.854 201.535C293.484 202.445 294.324 203.075 295.374 203.425C296.494 203.775 297.684 203.95 298.944 203.95H299.784V205H265.344Z" fill="white"/>
<path d="M359.716 229.78C351.246 229.78 344.841 228.73 340.501 226.63C336.231 224.53 334.096 221.59 334.096 217.81C334.096 215.71 334.761 213.925 336.091 212.455C337.491 210.985 339.626 209.795 342.496 208.885C345.366 208.045 349.076 207.555 353.626 207.415C349.216 206.855 345.856 205.49 343.546 203.32C341.236 201.08 340.081 198.56 340.081 195.76C340.081 193.03 341.096 190.65 343.126 188.62C345.226 186.59 348.201 185.015 352.051 183.895C347.851 182.705 344.561 180.605 342.181 177.595C339.871 174.585 338.716 170.805 338.716 166.255C338.716 160.305 340.606 155.65 344.386 152.29C348.166 148.93 354.081 147.25 362.131 147.25C365.071 147.25 367.766 147.6 370.216 148.3C372.736 149 374.906 149.98 376.726 151.24C377.636 149.63 378.616 148.3 379.666 147.25C380.716 146.2 381.871 145.395 383.131 144.835C384.391 144.275 385.756 143.995 387.226 143.995C389.536 143.995 391.286 144.59 392.476 145.78C393.736 146.97 394.366 148.51 394.366 150.4C394.366 152.22 393.736 153.76 392.476 155.02C391.216 156.21 389.221 156.805 386.491 156.805C386.491 154.775 386.036 153.165 385.126 151.975C384.286 150.785 383.131 150.19 381.661 150.19C380.961 150.19 380.296 150.365 379.666 150.715C379.036 150.995 378.371 151.415 377.671 151.975C380.051 153.725 381.871 155.86 383.131 158.38C384.391 160.9 385.021 163.735 385.021 166.885C385.021 172.205 383.166 176.615 379.456 180.115C375.816 183.545 370.041 185.26 362.131 185.26C360.521 185.26 358.981 185.19 357.511 185.05C356.041 184.84 354.641 184.56 353.311 184.21C352.331 184.77 351.631 185.4 351.211 186.1C350.791 186.8 350.581 187.57 350.581 188.41C350.581 189.74 351.106 190.86 352.156 191.77C353.276 192.61 355.271 193.03 358.141 193.03H369.901C374.801 193.03 378.791 193.66 381.871 194.92C385.021 196.11 387.366 197.93 388.906 200.38C390.446 202.76 391.216 205.7 391.216 209.2C391.216 215.64 388.626 220.68 383.446 224.32C378.336 227.96 370.426 229.78 359.716 229.78ZM361.606 228.73C364.896 228.73 367.766 228.275 370.216 227.365C372.666 226.525 374.521 225.195 375.781 223.375C377.111 221.625 377.776 219.385 377.776 216.655C377.776 213.855 377.006 211.72 375.466 210.25C373.926 208.85 371.546 208.15 368.326 208.15H357.196C355.166 208.15 353.451 208.535 352.051 209.305C350.721 210.145 349.706 211.265 349.006 212.665C348.376 214.135 348.061 215.885 348.061 217.915C348.061 220.295 348.551 222.29 349.531 223.9C350.581 225.51 352.121 226.7 354.151 227.47C356.181 228.31 358.666 228.73 361.606 228.73ZM361.921 184.21C363.601 184.21 364.931 183.65 365.911 182.53C366.961 181.41 367.696 179.59 368.116 177.07C368.536 174.55 368.746 171.155 368.746 166.885C368.746 162.265 368.536 158.625 368.116 155.965C367.696 153.235 366.961 151.275 365.911 150.085C364.931 148.895 363.566 148.3 361.816 148.3C360.136 148.3 358.771 148.895 357.721 150.085C356.671 151.275 355.901 153.235 355.411 155.965C354.991 158.695 354.781 162.37 354.781 166.99C354.781 171.26 354.991 174.655 355.411 177.175C355.901 179.695 356.671 181.515 357.721 182.635C358.771 183.685 360.171 184.21 361.921 184.21Z" fill="black"/>
<path d="M79.455 311.05C74.345 311.05 70.145 310.595 66.855 309.685C63.565 308.705 60.94 307.48 58.98 306.01C57.09 304.47 55.76 302.86 54.99 301.18C54.22 299.43 53.835 297.785 53.835 296.245C53.835 293.515 54.465 291.38 55.725 289.84C56.985 288.3 58.595 287.215 60.555 286.585C62.515 285.885 64.615 285.535 66.855 285.535C66.855 291.625 67.45 296.455 68.64 300.025C69.83 303.525 71.545 306.045 73.785 307.585C76.025 309.125 78.79 309.895 82.08 309.895C86.28 309.895 89.605 308.81 92.055 306.64C94.505 304.47 95.73 301.355 95.73 297.295C95.73 293.865 94.96 291.135 93.42 289.105C91.88 287.075 89.64 285.29 86.7 283.75C83.76 282.14 80.225 280.46 76.095 278.71C73.015 277.38 70.25 276.015 67.8 274.615C65.35 273.145 63.215 271.5 61.395 269.68C59.645 267.86 58.315 265.795 57.405 263.485C56.495 261.175 56.04 258.48 56.04 255.4C56.04 250.99 57.195 247.21 59.505 244.06C61.885 240.84 65.14 238.355 69.27 236.605C73.47 234.855 78.3 233.98 83.76 233.98C88.87 233.98 93.105 234.61 96.465 235.87C99.895 237.06 102.415 238.635 104.025 240.595C105.705 242.485 106.545 244.515 106.545 246.685C106.545 249.275 105.425 251.445 103.185 253.195C101.015 254.945 97.41 255.82 92.37 255.82C92.37 250.99 91.985 247.07 91.215 244.06C90.445 241.05 89.185 238.81 87.435 237.34C85.685 235.87 83.445 235.135 80.715 235.135C78.755 235.135 76.9 235.555 75.15 236.395C73.4 237.165 72 238.425 70.95 240.175C69.9 241.855 69.375 244.095 69.375 246.895C69.375 249.625 70.005 251.935 71.265 253.825C72.595 255.715 74.695 257.5 77.565 259.18C80.505 260.86 84.39 262.75 89.22 264.85C93.49 266.6 97.13 268.49 100.14 270.52C103.22 272.48 105.53 274.825 107.07 277.555C108.68 280.285 109.485 283.715 109.485 287.845C109.485 292.395 108.295 296.42 105.915 299.92C103.535 303.35 100.07 306.08 95.52 308.11C91.04 310.07 85.685 311.05 79.455 311.05Z" fill="black"/>
<path d="M140.324 311.05C135.214 311.05 131.154 309.825 128.144 307.375C125.134 304.855 123.629 300.515 123.629 294.355V254.77H115.859V253.72C119.149 253.72 122.124 253.44 124.784 252.88C127.444 252.25 129.789 251.34 131.819 250.15C133.989 248.89 135.809 247.315 137.279 245.425C138.819 243.535 140.079 241.295 141.059 238.705H142.109V253.72H155.339V254.77H142.109V299.395C142.109 302.475 142.739 304.785 143.999 306.325C145.259 307.795 147.009 308.53 149.249 308.53C150.299 308.53 151.384 308.425 152.504 308.215C153.694 307.935 154.954 307.515 156.284 306.955V308.005C155.094 308.565 153.134 309.23 150.404 310C147.674 310.7 144.314 311.05 140.324 311.05Z" fill="black"/>
<path d="M185.451 311.05C179.571 311.05 175.161 309.475 172.221 306.325C169.281 303.105 167.811 297.96 167.811 290.89V262.12C167.811 259.95 167.566 258.375 167.076 257.395C166.656 256.345 165.991 255.645 165.081 255.295C164.171 254.945 162.946 254.77 161.406 254.77H161.091V253.72H186.291V293.515C186.291 296.525 186.466 299.01 186.816 300.97C187.236 302.93 187.936 304.4 188.916 305.38C189.896 306.36 191.226 306.85 192.906 306.85C195.006 306.85 196.651 306.01 197.841 304.33C199.031 302.65 199.836 300.445 200.256 297.715C200.746 294.915 200.991 291.87 200.991 288.58V261.49C200.991 259.6 200.676 258.165 200.046 257.185C199.486 256.205 198.646 255.575 197.526 255.295C196.476 254.945 195.321 254.77 194.061 254.77H193.641V253.72H219.471V302.44C219.471 304.26 219.786 305.66 220.416 306.64C221.046 307.55 221.886 308.18 222.936 308.53C224.056 308.81 225.246 308.95 226.506 308.95H226.926V310H201.096V299.71H200.886C200.396 301.81 199.661 303.595 198.681 305.065C197.771 306.535 196.651 307.725 195.321 308.635C194.061 309.475 192.591 310.07 190.911 310.42C189.231 310.84 187.411 311.05 185.451 311.05Z" fill="black"/>
<path d="M255.033 311.05C250.483 311.05 246.633 310 243.483 307.9C240.403 305.73 238.058 302.475 236.448 298.135C234.838 293.725 234.033 288.195 234.033 281.545C234.033 274.965 234.838 269.54 236.448 265.27C238.058 260.93 240.368 257.71 243.378 255.61C246.388 253.44 250.028 252.355 254.298 252.355C258.638 252.355 262.173 253.58 264.903 256.03C267.703 258.48 269.523 262.295 270.363 267.475H270.573C270.573 264.745 270.538 262.12 270.468 259.6C270.468 257.01 270.468 254.7 270.468 252.67C270.468 250.57 270.468 248.89 270.468 247.63V237.97C270.468 236.01 270.083 234.575 269.313 233.665C268.613 232.685 267.668 232.055 266.478 231.775C265.288 231.425 264.098 231.25 262.908 231.25H261.543V230.2H288.948V301.915C288.948 303.945 289.333 305.45 290.103 306.43C290.873 307.41 291.853 308.075 293.043 308.425C294.233 308.775 295.388 308.95 296.508 308.95H297.348V310H270.573V295.93H270.363C269.523 301.18 267.843 305.03 265.323 307.48C262.873 309.86 259.443 311.05 255.033 311.05ZM261.018 308.005C263.958 308.005 266.268 305.695 267.948 301.075C269.628 296.385 270.468 289.665 270.468 280.915C270.468 275.665 270.083 271.22 269.313 267.58C268.543 263.87 267.458 261.035 266.058 259.075C264.658 257.115 262.943 256.135 260.913 256.135C259.093 256.135 257.553 257.08 256.293 258.97C255.103 260.86 254.193 263.66 253.563 267.37C252.933 271.01 252.618 275.49 252.618 280.81C252.618 286.69 252.898 291.66 253.458 295.72C254.088 299.78 255.033 302.86 256.293 304.96C257.553 306.99 259.128 308.005 261.018 308.005Z" fill="black"/>
<path d="M300.717 310V308.95H301.977C303.167 308.95 304.287 308.74 305.337 308.32C306.457 307.9 307.332 307.165 307.962 306.115C308.662 305.065 309.012 303.56 309.012 301.6V261.49C309.012 259.67 308.662 258.305 307.962 257.395C307.262 256.415 306.352 255.75 305.232 255.4C304.182 254.98 303.097 254.77 301.977 254.77H300.297V253.72H327.387V301.81C327.387 303.7 327.702 305.17 328.332 306.22C329.032 307.27 329.907 308.005 330.957 308.425C332.077 308.775 333.232 308.95 334.422 308.95H335.577V310H300.717ZM317.622 244.69C315.242 244.69 313.212 244.025 311.532 242.695C309.922 241.295 309.117 239.3 309.117 236.71C309.117 233.91 309.922 231.88 311.532 230.62C313.212 229.36 315.277 228.73 317.727 228.73C320.037 228.73 322.032 229.36 323.712 230.62C325.462 231.88 326.337 233.91 326.337 236.71C326.337 239.37 325.462 241.365 323.712 242.695C321.962 244.025 319.932 244.69 317.622 244.69Z" fill="black"/>
<path d="M370.357 311.05C361.607 311.05 354.712 308.635 349.672 303.805C344.702 298.905 342.217 291.485 342.217 281.545C342.217 271.675 344.597 264.325 349.357 259.495C354.187 254.665 361.292 252.25 370.672 252.25C379.422 252.25 386.317 254.665 391.357 259.495C396.397 264.325 398.917 271.675 398.917 281.545C398.917 291.485 396.502 298.905 391.672 303.805C386.842 308.635 379.737 311.05 370.357 311.05ZM370.567 310C373.017 310 374.907 309.125 376.237 307.375C377.637 305.625 378.652 302.685 379.282 298.555C379.912 294.355 380.227 288.685 380.227 281.545C380.227 274.475 379.912 268.91 379.282 264.85C378.652 260.72 377.637 257.78 376.237 256.03C374.837 254.21 372.912 253.3 370.462 253.3C368.152 253.3 366.297 254.21 364.897 256.03C363.497 257.78 362.482 260.72 361.852 264.85C361.222 268.91 360.907 274.475 360.907 281.545C360.907 288.685 361.222 294.355 361.852 298.555C362.482 302.685 363.497 305.625 364.897 307.375C366.297 309.125 368.187 310 370.567 310Z" fill="black"/>
</svg>
