<svg width="591" height="591" viewBox="0 0 591 591" fill="none" xmlns="http://www.w3.org/2000/svg">
<rect width="591" height="591" fill="white"/>
<path d="M416.089 366.19L390.208 318.641L216.753 322.396V572H516.733C516.733 572 518.82 571.905 521.284 568.205C523.858 564.34 522.773 561.374 522.773 561.374L416.089 366.19ZM269.544 273.359H216.753V139.672H269.544C287.141 139.672 302.134 142.098 314.524 146.949C327.093 151.621 336.699 158.988 343.343 169.051C350.166 178.934 353.578 191.781 353.578 207.594C353.578 223.227 350.166 235.895 343.343 245.598C336.699 255.301 327.093 262.398 314.524 266.891C302.134 271.203 287.141 273.359 269.544 273.359ZM213.349 277.508V136.334H358.973V277.508H213.349Z" fill="url(#paint0_linear_32_10)"/>
<path d="M213.349 136.334H358.973V277.508H213.349V136.334Z" fill="url(#paint1_linear_32_10)"/>
<path d="M213.349 277.508H358.973V136.334H213.349V277.508Z" fill="url(#paint2_linear_32_10)"/>
<path d="M213.349 277.508H358.973V136.334H213.349V277.508Z" fill="url(#paint3_linear_32_10)"/>
<path d="M416.089 366.19L390.208 318.641L216.753 322.396V572H215.228H174.183H75.3086C75.3086 572 71.1003 571.437 69.2409 568.964C67.629 566.82 67.724 563.651 67.724 563.651L67.6759 528.425L67.5974 470.892L67.5189 413.359L67 33.11C67 33.11 66.9996 27.2343 70.7578 23.7605C74.2292 20.5517 79.1009 20 79.1009 20H305.097C346.037 20 381.859 27.457 412.564 42.3711C443.268 57.2852 467.15 78.7578 484.208 106.789C501.266 134.82 509.795 168.422 509.795 207.594C509.795 247.125 500.997 280.457 483.4 307.59C467.142 332.916 444.706 352.449 416.089 366.19ZM213.349 277.508V136.334H358.973V277.508H213.349Z" fill="url(#paint4_linear_32_10)"/>
<path d="M211.34 458.366L177.08 468.069C174.926 462.355 171.747 456.802 167.546 451.412C163.452 445.913 157.85 441.385 150.739 437.827C143.628 434.269 134.525 432.491 123.428 432.491C108.237 432.491 95.5781 435.994 85.4509 443.002C75.4314 449.902 70.4217 458.689 70.4217 469.362C70.4217 478.85 73.8692 486.343 80.7644 491.841C87.6595 497.34 98.4331 501.922 113.085 505.587L149.931 514.644C172.125 520.034 188.662 528.282 199.543 539.387C208.274 548.21 213.502 559.081 215.228 572C192.905 572 178.494 572 174.183 572C172.675 568.378 170.408 565.107 167.384 562.189C161.351 556.259 152.086 551.839 139.588 548.928L98.2176 539.225C86.4093 536.425 76.2284 532.826 67.6759 528.425C67.6759 496.652 67.5189 479.954 67.5189 413.359C70.3805 411.687 73.3951 410.141 76.5627 408.718C90.3529 402.573 105.975 399.5 123.428 399.5C147.992 399.5 167.276 404.891 181.282 415.672C195.396 426.453 205.415 440.684 211.34 458.366Z" fill="white"/>
<defs>
<linearGradient id="paint0_linear_32_10" x1="67.724" y1="27.797" x2="499.66" y2="562.593" gradientUnits="userSpaceOnUse">
<stop stop-color="#3A0CA3"/>
<stop offset="0.235577" stop-color="#3F37C9"/>
<stop offset="1" stop-color="#9896BF"/>
</linearGradient>
<linearGradient id="paint1_linear_32_10" x1="67.724" y1="27.797" x2="499.66" y2="562.593" gradientUnits="userSpaceOnUse">
<stop stop-color="#3A0CA3"/>
<stop offset="0.235577" stop-color="#3F37C9"/>
<stop offset="1" stop-color="#9896BF"/>
</linearGradient>
<linearGradient id="paint2_linear_32_10" x1="67.724" y1="27.797" x2="499.66" y2="562.593" gradientUnits="userSpaceOnUse">
<stop stop-color="#3A0CA3"/>
<stop offset="0.235577" stop-color="#3F37C9"/>
<stop offset="1" stop-color="#9896BF"/>
</linearGradient>
<linearGradient id="paint3_linear_32_10" x1="67.724" y1="27.797" x2="499.66" y2="562.593" gradientUnits="userSpaceOnUse">
<stop stop-color="#3A0CA3"/>
<stop offset="0.235577" stop-color="#3F37C9"/>
<stop offset="1" stop-color="#9896BF"/>
</linearGradient>
<linearGradient id="paint4_linear_32_10" x1="67.724" y1="27.797" x2="499.66" y2="562.593" gradientUnits="userSpaceOnUse">
<stop stop-color="#3A0CA3"/>
<stop offset="0.235577" stop-color="#3F37C9"/>
<stop offset="1" stop-color="#9896BF"/>
</linearGradient>
</defs>
</svg>
