<svg width="1920" height="227" viewBox="0 0 1920 227" fill="none" xmlns="http://www.w3.org/2000/svg">
<path d="M-171 58.4L-139.345 72.45C-107.689 86.5 -44.6688 114.6 19.2229 123.996C82.3885 133.041 145.554 124.259 209.446 105.204C272.611 86.5 335.777 58.4 399.669 63.054C462.689 68.0594 526 104.941 589.892 100.55C652.767 96.1593 716.223 48.7406 780.115 34.954C842.845 20.6406 906.446 39.9594 968.885 44.35C1032.92 48.7406 1096.67 39.9594 1159.11 44.35C1223 48.7406 1286.89 68.0593 1349.33 53.7459C1413.08 39.9594 1477.11 -7.4594 1539.55 2.19998C1603.16 11.8594 1665.89 76.8406 1729.78 109.946C1793.23 142.7 1856.11 142.7 1888.05 142.7H1920V227H1888.34C1856.69 227 1793.67 227 1729.78 227C1666.61 227 1603.45 227 1539.55 227C1476.39 227 1413.22 227 1349.33 227C1286.31 227 1223 227 1159.11 227C1096.23 227 1032.78 227 968.885 227C906.155 227 842.554 227 780.115 227C716.078 227 652.331 227 589.892 227C526 227 462.108 227 399.669 227C335.922 227 271.885 227 209.446 227C145.845 227 83.1146 227 19.2229 227C-44.2331 227 -107.108 227 -139.054 227H-171V58.4Z" fill="#E6EAEE"/>
</svg>
