<?xml version="1.0" standalone="no"?>
<!DOCTYPE svg PUBLIC "-//W3C//DTD SVG 20010904//EN"
 "http://www.w3.org/TR/2001/REC-SVG-20010904/DTD/svg10.dtd">
<svg version="1.0" xmlns="http://www.w3.org/2000/svg"
 width="1324.000000pt" height="478.000000pt" viewBox="0 0 1324.000000 478.000000"
 preserveAspectRatio="xMidYMid meet">

<g transform="translate(0.000000,478.000000) scale(0.100000,-0.100000)"
fill="#000000" stroke="none">
<path d="M1037 4763 c-49 -54 -83 -212 -58 -270 7 -17 47 -52 100 -89 l89 -62
108 33 c60 18 146 41 192 51 45 9 82 20 82 23 0 5 -259 177 -470 314 -26 16
-28 16 -43 0z"/>
<path d="M667 4563 c-3 -5 -12 -32 -21 -62 -24 -81 -21 -243 6 -361 40 -175
44 -162 -123 -420 -81 -124 -152 -235 -158 -248 -7 -13 -15 -88 -18 -170 l-6
-146 -42 -66 c-68 -104 -143 -263 -185 -389 -29 -86 -46 -121 -65 -134 -56
-41 -71 -117 -33 -177 14 -23 21 -49 19 -75 -2 -35 14 -66 131 -260 123 -202
137 -222 178 -242 24 -13 56 -23 71 -23 44 0 361 135 387 165 21 24 22 35 22
168 0 176 7 204 67 257 95 83 221 123 438 139 100 7 131 13 180 37 159 74 279
287 287 509 2 40 5 71 7 69 12 -12 30 -152 30 -234 1 -180 -43 -301 -150 -417
-82 -88 -111 -153 -111 -250 0 -70 3 -81 50 -176 28 -56 58 -127 66 -157 26
-95 39 -230 33 -340 -33 -571 -408 -966 -989 -1040 -51 -7 -109 -15 -128 -19
l-34 -7 104 -68 c243 -157 594 -303 865 -359 218 -45 289 -52 545 -52 222 1
260 3 401 28 190 33 404 86 496 123 90 35 285 133 370 185 191 116 457 359
575 525 262 367 326 841 176 1314 -114 363 -405 751 -798 1067 -118 95 -368
263 -506 342 -281 158 -630 301 -959 391 -142 39 -65 30 135 -16 742 -171
1296 -449 1724 -864 176 -171 306 -353 501 -703 48 -86 89 -156 91 -154 7 7
-17 247 -32 322 -80 396 -273 661 -679 929 -390 258 -816 443 -1287 558 -76
18 -138 36 -138 39 0 22 337 36 464 20 49 -6 91 -9 93 -7 6 6 -235 102 -339
135 -392 124 -833 133 -1167 22 l-85 -28 -216 157 c-251 182 -237 173 -243
163z m1010 -529 c-3 -3 -12 -4 -19 -1 -8 3 -5 6 6 6 11 1 17 -2 13 -5z m50
-10 c-3 -3 -12 -4 -19 -1 -8 3 -5 6 6 6 11 1 17 -2 13 -5z m-913 -711 c-19
-85 -28 -112 -50 -150 -36 -62 -98 -89 -160 -69 -36 11 -46 85 -19 136 18 34
89 79 154 96 73 20 82 18 75 -13z"/>
<path d="M6060 3260 l0 -920 220 0 219 0 3 448 3 447 24 49 c44 89 111 137
216 157 119 22 224 -31 256 -128 9 -28 14 -165 16 -505 l4 -468 215 0 215 0
-4 518 c-4 575 -3 569 -74 705 -78 148 -212 217 -421 217 -159 0 -296 -53
-394 -151 l-58 -57 0 304 0 304 -220 0 -220 0 0 -920z"/>
<path d="M5000 3960 l0 -210 -163 -2 -164 -3 58 -155 57 -155 106 -3 106 -3 0
-322 c0 -357 6 -409 61 -528 54 -117 164 -205 305 -244 82 -22 267 -31 346
-16 69 13 188 51 188 60 0 3 -25 71 -54 151 -44 119 -58 145 -73 143 -10 -2
-41 -5 -68 -9 -75 -9 -159 11 -202 49 -66 58 -67 68 -71 410 l-4 307 211 0
211 0 0 160 0 160 -207 2 -208 3 -3 208 -2 207 -215 0 -215 0 0 -210z"/>
<path d="M8255 3764 c-38 -8 -113 -35 -165 -61 -173 -85 -305 -248 -357 -443
-25 -92 -25 -339 0 -430 54 -197 172 -342 352 -431 116 -57 215 -80 375 -86
158 -6 273 10 400 57 80 29 204 92 214 109 5 8 -101 291 -109 291 -1 0 -29
-16 -61 -35 -123 -75 -322 -115 -465 -96 -172 23 -268 105 -305 259 l-12 52
490 0 490 0 -4 153 c-4 129 -9 164 -31 232 -74 226 -244 384 -462 430 -88 18
-258 18 -350 -1z m316 -290 c85 -27 155 -127 166 -240 l6 -54 -312 0 -311 0 6
28 c14 58 37 117 59 152 75 119 227 164 386 114z"/>
<path d="M10072 3764 c-96 -26 -191 -87 -247 -162 l-35 -45 0 97 0 96 -215 0
-215 0 0 -705 0 -705 220 0 220 0 0 429 c0 399 1 433 20 492 37 121 119 183
240 183 74 0 118 -19 148 -61 45 -66 46 -74 50 -570 l3 -473 215 0 214 0 0
418 c0 452 4 491 54 576 32 55 83 91 150 106 103 23 184 -11 226 -95 l25 -50
3 -477 3 -478 215 0 215 0 -3 528 -3 527 -28 81 c-47 140 -125 228 -244 275
-50 20 -76 23 -193 23 -115 0 -144 -3 -195 -22 -91 -34 -190 -106 -238 -173
l-41 -59 -28 53 c-54 97 -139 163 -252 193 -65 18 -216 17 -284 -2z"/>
<path d="M12355 3764 c-38 -8 -113 -35 -165 -61 -173 -85 -305 -248 -357 -443
-25 -92 -25 -339 0 -430 54 -197 172 -342 352 -431 116 -57 215 -80 375 -86
158 -6 273 10 400 57 80 29 204 92 214 109 6 9 -102 291 -111 291 -3 0 -18 -9
-34 -21 -115 -81 -338 -131 -493 -110 -170 24 -266 106 -302 259 l-12 52 490
0 490 0 -4 153 c-4 129 -9 164 -31 232 -74 226 -244 384 -462 430 -88 18 -258
18 -350 -1z m316 -290 c85 -27 155 -127 166 -240 l6 -54 -312 0 -311 0 6 28
c14 58 37 117 59 152 75 119 227 164 386 114z"/>
<path d="M7755 2124 c-207 -30 -351 -70 -465 -130 l-68 -35 55 -137 c30 -75
58 -141 62 -145 4 -4 46 10 92 32 105 51 249 89 359 97 207 15 300 -52 300
-218 l0 -55 -177 -7 c-584 -24 -754 -123 -741 -436 3 -84 8 -105 36 -162 52
-105 163 -198 294 -244 22 -7 77 -18 123 -24 197 -24 359 41 446 180 l29 45 0
-97 0 -98 206 0 206 0 -4 488 c-5 539 -5 539 -73 678 -61 124 -187 214 -350
249 -71 15 -275 27 -330 19z m333 -901 c-5 -90 -27 -139 -85 -195 -56 -55
-124 -82 -204 -81 -149 1 -238 98 -206 225 13 52 66 91 144 106 32 7 67 13 78
16 11 2 78 4 149 5 l129 1 -5 -77z"/>
<path d="M10790 2120 c-218 -30 -412 -153 -510 -324 -71 -125 -108 -300 -96
-462 27 -388 263 -634 645 -673 501 -52 850 249 851 732 0 300 -133 534 -373
652 -50 25 -123 52 -162 60 -89 19 -270 27 -355 15z m276 -348 c61 -31 127
-110 150 -179 15 -47 19 -87 19 -208 -1 -171 -16 -227 -81 -304 -103 -119
-299 -134 -417 -31 -87 77 -124 201 -114 389 9 192 81 308 217 352 47 16 181
4 226 -19z"/>
<path d="M12645 2123 c-121 -16 -235 -74 -315 -160 l-60 -64 0 101 0 100 -210
0 -210 0 0 -705 0 -705 215 0 215 0 0 419 c0 389 1 423 20 482 38 123 126 189
261 197 130 8 198 -40 225 -157 10 -42 14 -167 14 -498 l0 -443 215 0 216 0
-3 523 -3 522 -27 77 c-45 135 -107 212 -210 264 -82 41 -231 62 -343 47z"/>
<path d="M9208 2105 c-238 -49 -460 -256 -514 -481 -24 -98 -25 -364 -1 -454
50 -190 182 -337 388 -434 94 -45 167 -64 295 -76 177 -16 393 11 560 72 l84
30 0 364 0 364 -300 0 -300 0 0 -130 0 -130 145 0 145 0 0 -114 c0 -130 10
-118 -104 -137 -81 -14 -192 -7 -256 15 -102 36 -204 146 -238 256 -25 83 -22
238 7 312 40 104 119 180 228 220 116 42 356 24 493 -38 33 -15 62 -25 64 -23
8 8 106 266 106 278 0 15 -101 61 -200 91 -67 21 -100 23 -305 26 -167 2 -248
-1 -297 -11z"/>
<path d="M4949 1398 l286 -703 184 0 184 0 148 394 c82 217 151 396 152 398 2
2 66 -158 142 -354 76 -197 146 -377 156 -400 l18 -43 183 0 183 0 280 696
c154 383 282 700 283 705 2 5 -86 9 -205 9 l-208 0 -165 -450 c-91 -247 -168
-450 -171 -450 -3 0 -79 202 -170 450 l-164 450 -147 0 -146 0 -10 -27 c-33
-94 -315 -850 -321 -860 -3 -6 -80 190 -171 435 l-166 447 -221 3 -220 2 286
-702z"/>
</g>
</svg>
