<svg width="1765" height="636" viewBox="0 0 1765 636" fill="none" xmlns="http://www.w3.org/2000/svg">
<path d="M138.267 2.26663C131.733 9.46663 127.2 30.5333 130.533 38.2666C131.467 40.5333 136.8 45.2 143.867 50.1333L155.733 58.4L170.133 54C178.133 51.6 189.6 48.5333 195.733 47.2C201.733 46 206.667 44.5333 206.667 44.1333C206.667 43.4666 172.133 20.5333 144 2.26663C140.533 0.133298 140.267 0.133298 138.267 2.26663Z" fill="#60C348"/>
<path d="M88.9333 28.9333C88.5333 29.6 87.3333 33.2 86.1333 37.2C82.9333 48 83.3333 69.6 86.9333 85.3333C92.2666 108.667 92.7999 106.933 70.5333 141.333C59.7333 157.867 50.2666 172.667 49.4666 174.4C48.5333 176.133 47.4666 186.133 47.0666 197.067L46.2666 216.533L40.6666 225.333C31.5999 239.2 21.5999 260.4 15.9999 277.2C12.1333 288.667 9.86659 293.333 7.33326 295.067C-0.133407 300.533 -2.13341 310.667 2.93326 318.667C4.79993 321.733 5.73326 325.2 5.46659 328.667C5.19993 333.333 7.33326 337.467 22.9333 363.333C39.3333 390.267 41.1999 392.933 46.6666 395.6C49.8666 397.333 54.1333 398.667 56.1333 398.667C61.9999 398.667 104.267 380.667 107.733 376.667C110.533 373.467 110.667 372 110.667 354.267C110.667 330.8 111.6 327.067 119.6 320C132.267 308.933 149.067 303.6 178 301.467C191.333 300.533 195.467 299.733 202 296.533C223.2 286.667 239.2 258.267 240.267 228.667C240.533 223.333 240.933 219.2 241.2 219.467C242.8 221.067 245.2 239.733 245.2 250.667C245.333 274.667 239.467 290.8 225.2 306.267C214.267 318 210.4 326.667 210.4 339.6C210.4 348.933 210.8 350.4 217.067 363.067C220.8 370.533 224.8 380 225.867 384C229.333 396.667 231.067 414.667 230.267 429.333C225.867 505.467 175.867 558.133 98.3999 568C91.5999 568.933 83.8666 570 81.3333 570.533L76.7999 571.467L90.6666 580.533C123.067 601.467 169.867 620.933 206 628.4C235.067 634.4 244.533 635.333 278.667 635.333C308.267 635.2 313.333 634.933 332.133 631.6C357.467 627.2 386 620.133 398.267 615.2C410.267 610.533 436.267 597.467 447.6 590.533C473.067 575.067 508.533 542.667 524.267 520.533C559.2 471.6 567.733 408.4 547.733 345.333C532.533 296.933 493.733 245.2 441.333 203.067C425.6 190.4 392.267 168 373.867 157.467C336.4 136.4 289.867 117.333 246 105.333C227.067 100.133 237.333 101.333 264 107.467C362.933 130.267 436.8 167.333 493.867 222.667C517.333 245.467 534.667 269.733 560.667 316.4C567.067 327.867 572.533 337.2 572.8 336.933C573.733 336 570.533 304 568.533 294C557.867 241.2 532.133 205.867 478 170.133C426 135.733 369.2 111.067 306.4 95.7333C296.267 93.3333 288 90.9333 288 90.5333C288 87.5999 332.933 85.7333 349.867 87.8666C356.4 88.6666 362 89.0666 362.267 88.7999C363.067 87.9999 330.933 75.1999 317.067 70.7999C264.8 54.2666 206 53.0666 161.467 67.8666L150.133 71.6L121.333 50.6666C87.8666 26.4 89.7333 27.6 88.9333 28.9333ZM223.6 99.4666C223.2 99.8666 222 100 221.067 99.6C220 99.2 220.4 98.7999 221.867 98.7999C223.333 98.6666 224.133 99.0666 223.6 99.4666ZM230.267 100.8C229.867 101.2 228.667 101.333 227.733 100.933C226.667 100.533 227.067 100.133 228.533 100.133C230 100 230.8 100.4 230.267 100.8ZM108.533 195.6C106 206.933 104.8 210.533 101.867 215.6C97.0666 223.867 88.7999 227.467 80.5333 224.8C75.7333 223.333 74.3999 213.467 77.9999 206.667C80.3999 202.133 89.8666 196.133 98.5333 193.867C108.267 191.2 109.467 191.467 108.533 195.6Z" fill="#60C348"/>
<path d="M808 202.667V325.333H837.333H866.533L866.933 265.6L867.333 206L870.533 199.467C876.4 187.6 885.333 181.2 899.333 178.533C915.2 175.6 929.2 182.667 933.467 195.6C934.667 199.333 935.333 217.6 935.6 262.933L936.133 325.333H964.8H993.467L992.933 256.267C992.4 179.6 992.533 180.4 983.067 162.267C972.667 142.533 954.8 133.333 926.933 133.333C905.733 133.333 887.467 140.4 874.4 153.467L866.667 161.067V120.533V80H837.333H808V202.667Z" fill="#60C348"/>
<path d="M666.667 109.333V137.333L644.933 137.6L623.067 138L630.8 158.667L638.4 179.333L652.533 179.733L666.667 180.133V223.067C666.667 270.667 667.467 277.6 674.8 293.467C682 309.067 696.667 320.8 715.467 326C726.4 328.933 751.067 330.133 761.6 328.133C770.8 326.4 786.667 321.333 786.667 320.133C786.667 319.733 783.333 310.667 779.467 300C773.6 284.133 771.733 280.667 769.733 280.933C768.4 281.2 764.267 281.6 760.667 282.133C750.667 283.333 739.467 280.667 733.733 275.6C724.933 267.867 724.8 266.533 724.267 220.933L723.733 180H751.867H780V158.667V137.333L752.4 137.067L724.667 136.667L724.267 108.933L724 81.3333H695.333H666.667V109.333Z" fill="#60C348"/>
<path d="M1100.67 135.467C1095.6 136.533 1085.6 140.133 1078.67 143.6C1055.6 154.933 1038 176.667 1031.07 202.667C1027.73 214.933 1027.73 247.867 1031.07 260C1038.27 286.267 1054 305.6 1078 317.467C1093.47 325.067 1106.67 328.133 1128 328.933C1149.07 329.733 1164.4 327.6 1181.33 321.333C1192 317.467 1208.53 309.067 1209.87 306.8C1210.53 305.733 1196.4 268 1195.33 268C1195.2 268 1191.47 270.133 1187.2 272.667C1170.8 282.667 1144.27 288 1125.2 285.467C1102.27 282.4 1089.47 271.467 1084.53 250.933L1082.93 244H1148.27H1213.6L1213.07 223.6C1212.53 206.4 1211.87 201.733 1208.93 192.667C1199.07 162.533 1176.4 141.467 1147.33 135.333C1135.6 132.933 1112.93 132.933 1100.67 135.467ZM1142.8 174.133C1154.13 177.733 1163.47 191.067 1164.93 206.133L1165.73 213.333H1124.13H1082.67L1083.47 209.6C1085.33 201.867 1088.4 194 1091.33 189.333C1101.33 173.467 1121.6 167.467 1142.8 174.133Z" fill="#60C348"/>
<path d="M1342.93 135.467C1330.13 138.933 1317.47 147.067 1310 157.067L1305.33 163.067V150.133V137.333H1276.67H1248V231.333V325.333H1277.33H1306.67V268.133C1306.67 214.933 1306.8 210.4 1309.33 202.533C1314.27 186.4 1325.2 178.133 1341.33 178.133C1351.2 178.133 1357.07 180.667 1361.07 186.267C1367.07 195.067 1367.2 196.133 1367.73 262.267L1368.13 325.333H1396.8H1425.33V269.6C1425.33 209.333 1425.87 204.133 1432.53 192.8C1436.8 185.467 1443.6 180.667 1452.53 178.667C1466.27 175.6 1477.07 180.133 1482.67 191.333L1486 198L1486.4 261.6L1486.8 325.333H1515.47H1544.13L1543.73 254.933L1543.33 184.667L1539.6 173.867C1533.33 155.2 1522.93 143.467 1507.07 137.2C1500.4 134.533 1496.93 134.133 1481.33 134.133C1466 134.133 1462.13 134.533 1455.33 137.067C1443.2 141.6 1430 151.2 1423.6 160.133L1418.13 168L1414.4 160.933C1407.2 148 1395.87 139.2 1380.8 135.2C1372.13 132.8 1352 132.933 1342.93 135.467Z" fill="#60C348"/>
<path d="M1647.33 135.467C1642.27 136.533 1632.27 140.133 1625.33 143.6C1602.27 154.933 1584.67 176.667 1577.73 202.667C1574.4 214.933 1574.4 247.867 1577.73 260C1584.93 286.267 1600.67 305.6 1624.67 317.467C1640.13 325.067 1653.33 328.133 1674.67 328.933C1695.73 329.733 1711.07 327.6 1728 321.333C1738.67 317.467 1755.2 309.067 1756.53 306.8C1757.33 305.6 1742.93 268 1741.73 268C1741.33 268 1739.33 269.2 1737.2 270.8C1721.87 281.6 1692.13 288.267 1671.47 285.467C1648.8 282.267 1636 271.333 1631.2 250.933L1629.6 244H1694.93H1760.27L1759.73 223.6C1759.2 206.4 1758.53 201.733 1755.6 192.667C1745.73 162.533 1723.07 141.467 1694 135.333C1682.27 132.933 1659.6 132.933 1647.33 135.467ZM1689.47 174.133C1700.8 177.733 1710.13 191.067 1711.6 206.133L1712.4 213.333H1670.8H1629.33L1630.13 209.6C1632 201.867 1635.07 194 1638 189.333C1648 173.467 1668.27 167.467 1689.47 174.133Z" fill="#60C348"/>
<path d="M1034 354.133C1006.4 358.133 987.2 363.467 972 371.467L962.933 376.133L970.267 394.4C974.267 404.4 978 413.2 978.533 413.733C979.067 414.267 984.667 412.4 990.8 409.467C1004.8 402.667 1024 397.6 1038.67 396.533C1066.27 394.533 1078.67 403.467 1078.67 425.6V432.933L1055.07 433.867C977.2 437.067 954.533 450.267 956.267 492C956.667 503.2 957.333 506 961.067 513.6C968 527.6 982.8 540 1000.27 546.133C1003.2 547.067 1010.53 548.533 1016.67 549.333C1042.93 552.533 1064.53 543.867 1076.13 525.333L1080 519.333V532.267V545.333H1107.47H1134.93L1134.4 480.267C1133.73 408.4 1133.73 408.4 1124.67 389.867C1116.53 373.333 1099.73 361.333 1078 356.667C1068.53 354.667 1041.33 353.067 1034 354.133ZM1078.4 474.267C1077.73 486.267 1074.8 492.8 1067.07 500.267C1059.6 507.6 1050.53 511.2 1039.87 511.067C1020 510.933 1008.13 498 1012.4 481.067C1014.13 474.133 1021.2 468.933 1031.6 466.933C1035.87 466 1040.53 465.2 1042 464.8C1043.47 464.533 1052.4 464.267 1061.87 464.133L1079.07 464L1078.4 474.267Z" fill="#60C348"/>
<path d="M1438.67 354.667C1409.6 358.667 1383.73 375.067 1370.67 397.867C1361.2 414.533 1356.27 437.867 1357.87 459.467C1361.47 511.2 1392.93 544 1443.87 549.2C1510.67 556.133 1557.2 516 1557.33 451.6C1557.33 411.6 1539.6 380.4 1507.6 364.667C1500.93 361.333 1491.2 357.733 1486 356.667C1474.13 354.133 1450 353.067 1438.67 354.667ZM1475.47 401.067C1483.6 405.2 1492.4 415.733 1495.47 424.933C1497.47 431.2 1498 436.533 1498 452.667C1497.87 475.467 1495.87 482.933 1487.2 493.2C1473.47 509.067 1447.33 511.067 1431.6 497.333C1420 487.067 1415.07 470.533 1416.4 445.467C1417.6 419.867 1427.2 404.4 1445.33 398.533C1451.6 396.4 1469.47 398 1475.47 401.067Z" fill="#60C348"/>
<path d="M1686 354.267C1669.87 356.4 1654.67 364.133 1644 375.6L1636 384.133V370.667V357.333H1608H1580V451.333V545.333H1608.67H1637.33V489.467C1637.33 437.6 1637.47 433.067 1640 425.2C1645.07 408.8 1656.8 400 1674.8 398.933C1692.13 397.867 1701.2 404.267 1704.8 419.867C1706.13 425.467 1706.67 442.133 1706.67 486.267V545.333H1735.33H1764.13L1763.73 475.6L1763.33 406L1759.73 395.733C1753.73 377.733 1745.47 367.467 1731.73 360.533C1720.8 355.067 1700.93 352.267 1686 354.267Z" fill="#60C348"/>
<path d="M1227.73 356.667C1196 363.2 1166.4 390.8 1159.2 420.8C1156 433.867 1155.87 469.333 1159.07 481.333C1165.73 506.667 1183.33 526.267 1210.8 539.2C1223.33 545.2 1233.07 547.733 1250.13 549.333C1273.73 551.467 1302.53 547.867 1324.8 539.733L1336 535.733V487.2V438.667H1296H1256V456V473.333H1275.33H1294.67V488.533C1294.67 505.867 1296 504.267 1280.8 506.8C1270 508.667 1255.2 507.733 1246.67 504.8C1233.07 500 1219.47 485.333 1214.93 470.667C1211.6 459.6 1212 438.933 1215.87 429.067C1221.2 415.2 1231.73 405.067 1246.27 399.733C1261.73 394.133 1293.73 396.533 1312 404.8C1316.4 406.8 1320.27 408.133 1320.53 407.867C1321.6 406.8 1334.67 372.4 1334.67 370.8C1334.67 368.8 1321.2 362.667 1308 358.667C1299.07 355.867 1294.67 355.6 1267.33 355.2C1245.07 354.933 1234.27 355.333 1227.73 356.667Z" fill="#60C348"/>
<path d="M659.867 450.933L698 544.667H722.533H747.067L766.8 492.133C777.733 463.2 786.933 439.333 787.067 439.067C787.333 438.8 795.867 460.133 806 486.267C816.133 512.533 825.467 536.533 826.8 539.6L829.2 545.333H853.6H878L915.333 452.533C935.867 401.467 952.933 359.2 953.067 358.533C953.333 357.867 941.6 357.333 925.733 357.333H898L876 417.333C863.867 450.267 853.6 477.333 853.2 477.333C852.8 477.333 842.667 450.4 830.533 417.333L808.667 357.333H789.067H769.6L768.267 360.933C763.867 373.467 726.267 474.267 725.467 475.6C725.067 476.4 714.8 450.267 702.667 417.6L680.533 358L651.067 357.6L621.733 357.333L659.867 450.933Z" fill="#60C348"/>
</svg>
